<svg xmlns="http://www.w3.org/2000/svg" width="16" height="16" viewBox="0 0 16 16">
  <g fill="none" transform="translate(0 2)">
    <polygon fill="#F6F9FC" points="5 0 11 0 11 12 5 12"/>
    <path fill="#EAEEF3" d="M5,12 L5,11 L11,11 L11,12 L5,12 Z M5,0 L11,0 L11,1 L5,1 L5,0 Z"/>
    <path fill="#24B47E" d="M2,0 L5,0 L5,12 L2,12 C0.8954305,12 0,11.1045695 0,10 L0,2 C0,0.8954305 0.8954305,0 2,0 Z"/>
    <path fill="#E25950" d="M14,12 L11,12 L11,0 L14,0 C15.1045695,0 16,0.8954305 16,2 L16,10 C16,11.1045695 15.1045695,12 14,12 Z"/>
  </g>
</svg>
