<?xml version="1.0" encoding="utf-8"?>
<!-- Generator: Adobe Illustrator 16.0.0, SVG Export Plug-In . SVG Version: 6.00 Build 0)  -->
<!DOCTYPE svg PUBLIC "-//W3C//DTD SVG 1.1//EN" "http://www.w3.org/Graphics/SVG/1.1/DTD/svg11.dtd">
<svg version="1.1" id="Livello_1" xmlns="http://www.w3.org/2000/svg" xmlns:xlink="http://www.w3.org/1999/xlink" x="0px" y="0px"
	 width="100px" height="100px" viewBox="0 0 100 100" enable-background="new 0 0 100 100" xml:space="preserve">
<polyline fill="none" stroke="#726666" stroke-miterlimit="10" points="76.004,98.716 1.622,98.716 1.622,1.25 98.14,1.25 
	98.14,98.716 "/>
<polyline fill="none" stroke="#726666" stroke-miterlimit="10" points="31.441,11.983 87.147,11.983 87.147,87.706 12.194,87.706 
	12.194,11.983 "/>
<path fill="#FAAEAF" d="M41.347,23.35c0,0-0.08,0.39-0.229,1.021c-0.134,0.641-0.348,1.523-0.537,2.53
	c-0.188,1.002-0.354,2.146-0.302,3.198c0.032,0.522,0.11,1.014,0.263,1.443c0.08,0.212,0.153,0.423,0.274,0.611
	c0.161,0.28,0.337,0.612,0.508,0.933c0.383,0.764,0.682,1.497,0.906,2.262c0.227,0.762,0.372,1.541,0.437,2.305
	c0.06,0.765,0.045,1.513-0.062,2.213c-0.094,0.699-0.281,1.347-0.508,1.913c-0.232,0.567-0.509,1.054-0.789,1.45
	c-0.279,0.398-0.574,0.701-0.821,0.937c-0.229,0.247-0.477,0.383-0.609,0.496c-0.149,0.101-0.228,0.155-0.228,0.155
	s0.024-0.093,0.067-0.269c0.043-0.172,0.123-0.413,0.181-0.725c0.032-0.153,0.067-0.32,0.104-0.503
	c0.019-0.188,0.045-0.384,0.077-0.587c0.042-0.416,0.064-0.872,0.059-1.357c-0.014-0.241-0.028-0.49-0.044-0.75
	c-0.044-0.26-0.056-0.518-0.108-0.785c-0.092-0.534-0.221-1.084-0.393-1.646c-0.176-0.558-0.374-1.129-0.629-1.696
	c-0.225-0.575-0.545-1.141-0.801-1.658c-0.169-0.312-0.357-0.598-0.531-0.947c-0.241-0.432-0.408-0.896-0.54-1.356
	c-0.237-0.93-0.247-1.845-0.133-2.662c0.249-1.639,0.924-2.905,1.593-3.869c0.68-0.961,1.381-1.629,1.917-2.048
	C40.991,23.531,41.347,23.35,41.347,23.35"/>
<path fill="#FAAEAF" d="M50.679,17.922c0,0-0.08,0.391-0.229,1.021c-0.135,0.641-0.349,1.522-0.538,2.529
	c-0.187,1.001-0.354,2.146-0.301,3.198c0.031,0.522,0.109,1.014,0.262,1.443c0.081,0.211,0.153,0.423,0.274,0.609
	c0.161,0.282,0.336,0.613,0.508,0.934c0.384,0.764,0.683,1.498,0.906,2.263c0.228,0.761,0.373,1.541,0.437,2.305
	c0.061,0.764,0.045,1.512-0.062,2.212c-0.095,0.699-0.282,1.347-0.51,1.914c-0.231,0.567-0.508,1.052-0.788,1.449
	c-0.279,0.399-0.575,0.701-0.821,0.937c-0.229,0.247-0.477,0.383-0.61,0.496c-0.148,0.101-0.227,0.155-0.227,0.155
	s0.024-0.094,0.067-0.27c0.043-0.171,0.122-0.413,0.181-0.724c0.032-0.153,0.067-0.32,0.104-0.504
	c0.019-0.188,0.044-0.384,0.076-0.587c0.042-0.416,0.064-0.872,0.059-1.357c-0.014-0.241-0.029-0.49-0.044-0.749
	c-0.044-0.26-0.055-0.519-0.108-0.786c-0.092-0.533-0.221-1.085-0.393-1.645c-0.176-0.558-0.374-1.129-0.63-1.696
	c-0.224-0.574-0.544-1.141-0.8-1.658c-0.169-0.311-0.357-0.598-0.531-0.947c-0.241-0.432-0.407-0.895-0.54-1.355
	c-0.237-0.931-0.247-1.846-0.132-2.662c0.248-1.639,0.923-2.904,1.592-3.867c0.679-0.962,1.38-1.63,1.917-2.049
	C50.324,18.104,50.679,17.922,50.679,17.922"/>
<path fill="#FAAEAF" d="M60.872,23.35c0,0-0.08,0.39-0.229,1.021c-0.134,0.641-0.349,1.523-0.537,2.53
	c-0.187,1.002-0.354,2.146-0.302,3.198c0.032,0.522,0.109,1.014,0.263,1.443c0.08,0.212,0.153,0.423,0.274,0.611
	c0.161,0.28,0.336,0.612,0.508,0.933c0.384,0.764,0.683,1.497,0.905,2.262c0.228,0.762,0.373,1.541,0.438,2.305
	c0.059,0.765,0.043,1.513-0.063,2.213c-0.094,0.699-0.281,1.347-0.509,1.913c-0.23,0.567-0.509,1.054-0.788,1.45
	c-0.279,0.398-0.575,0.701-0.821,0.937c-0.229,0.247-0.478,0.383-0.609,0.496c-0.148,0.101-0.227,0.155-0.227,0.155
	s0.023-0.093,0.066-0.269c0.044-0.172,0.123-0.413,0.182-0.725c0.032-0.153,0.067-0.32,0.104-0.503
	c0.019-0.188,0.045-0.384,0.077-0.587c0.042-0.416,0.063-0.872,0.059-1.357c-0.015-0.241-0.028-0.49-0.045-0.75
	c-0.045-0.26-0.055-0.518-0.108-0.785c-0.092-0.534-0.221-1.084-0.394-1.646c-0.176-0.558-0.373-1.129-0.629-1.696
	c-0.224-0.575-0.544-1.141-0.8-1.658c-0.169-0.312-0.357-0.598-0.531-0.947c-0.241-0.432-0.407-0.896-0.541-1.356
	c-0.236-0.93-0.245-1.845-0.132-2.662c0.247-1.639,0.923-2.905,1.593-3.869c0.68-0.961,1.38-1.629,1.915-2.048
	C60.517,23.531,60.872,23.35,60.872,23.35"/>
<polygon fill="#FAAEAF" points="75.767,78.017 23.125,78.017 20.92,74.285 77.972,74.285 "/>
<path fill="#FAAEAF" d="M53.328,50.942c0.091-0.331,0.145-0.676,0.145-1.035c0-2.162-1.753-3.916-3.916-3.916
	c-2.162,0-3.916,1.753-3.916,3.916c0,0.359,0.053,0.704,0.143,1.035c-12.362,1.681-21.85,11.49-21.85,23.344H75.18
	C75.18,62.433,65.69,52.623,53.328,50.942 M49.557,47.001c1.116,0,2.021,0.592,2.021,1.322c0,0.731-0.905,1.324-2.021,1.324
	c-1.117,0-2.022-0.593-2.022-1.324C47.535,47.593,48.44,47.001,49.557,47.001"/>
<polygon fill="none" stroke="#726666" stroke-miterlimit="10" points="74.311,79.436 23.61,79.436 21.486,75.842 76.437,75.842 "/>
<path fill="none" stroke="#726666" stroke-miterlimit="10" d="M52.699,53.358c0.089-0.317,0.139-0.651,0.139-0.995
	c0-2.083-1.688-3.771-3.771-3.771s-3.771,1.688-3.771,3.771c0,0.344,0.05,0.678,0.138,0.995
	c-11.907,1.62-21.045,11.067-21.045,22.484h49.355C73.744,64.426,64.606,54.979,52.699,53.358z M49.067,50.291
	c1.076,0,1.948,0.57,1.948,1.275c0,0.704-0.872,1.274-1.948,1.274s-1.947-0.57-1.947-1.274
	C47.12,50.861,47.991,50.291,49.067,50.291z"/>
<path fill="#FFFFFF" d="M46.907,56.494c-0.683-0.114-1.379-0.179-2.088-0.179c-8.622,0-15.61,8.737-15.61,19.516h4.176
	C33.384,65.938,39.273,57.77,46.907,56.494"/>
<path fill="none" stroke="#726666" stroke-miterlimit="10" d="M46.907,56.494c-0.683-0.114-1.379-0.179-2.088-0.179
	c-8.622,0-15.61,8.737-15.61,19.516h4.176C33.384,65.938,39.273,57.77,46.907,56.494z"/>
<path fill="none" stroke="#726666" stroke-miterlimit="10" d="M41.181,25.612c0,0-0.08,0.39-0.229,1.021
	c-0.134,0.641-0.348,1.522-0.537,2.528c-0.187,1.002-0.354,2.146-0.301,3.198c0.031,0.523,0.109,1.015,0.262,1.444
	c0.081,0.211,0.153,0.422,0.274,0.61c0.161,0.281,0.336,0.613,0.508,0.934c0.384,0.764,0.683,1.498,0.906,2.262
	c0.228,0.761,0.372,1.542,0.437,2.305c0.06,0.764,0.045,1.513-0.062,2.213c-0.094,0.699-0.282,1.346-0.508,1.914
	c-0.232,0.568-0.51,1.052-0.789,1.45c-0.279,0.399-0.575,0.701-0.821,0.937c-0.229,0.246-0.477,0.383-0.61,0.495
	c-0.147,0.102-0.226,0.156-0.226,0.156s0.024-0.093,0.067-0.27c0.043-0.171,0.122-0.411,0.181-0.724
	c0.031-0.152,0.067-0.32,0.104-0.504c0.019-0.188,0.044-0.384,0.076-0.587c0.042-0.415,0.064-0.871,0.059-1.356
	c-0.014-0.241-0.029-0.491-0.044-0.75c-0.045-0.26-0.056-0.519-0.108-0.785c-0.093-0.534-0.221-1.085-0.393-1.646
	c-0.177-0.558-0.375-1.129-0.63-1.695c-0.224-0.576-0.544-1.142-0.8-1.66c-0.169-0.311-0.357-0.598-0.531-0.947
	c-0.241-0.431-0.407-0.895-0.54-1.355c-0.237-0.93-0.247-1.845-0.133-2.662c0.249-1.639,0.924-2.904,1.593-3.867
	c0.679-0.961,1.38-1.63,1.917-2.049C40.826,25.793,41.181,25.612,41.181,25.612z"/>
<path fill="none" stroke="#726666" stroke-miterlimit="10" d="M50.514,20.185c0,0-0.08,0.389-0.229,1.021
	c-0.135,0.64-0.349,1.521-0.538,2.529c-0.187,1.002-0.354,2.146-0.302,3.197c0.031,0.522,0.109,1.016,0.263,1.444
	c0.081,0.21,0.153,0.422,0.274,0.609c0.16,0.281,0.336,0.614,0.508,0.935c0.384,0.763,0.683,1.497,0.905,2.262
	c0.228,0.76,0.372,1.542,0.438,2.305c0.059,0.763,0.045,1.513-0.063,2.212c-0.094,0.699-0.28,1.347-0.507,1.914
	c-0.231,0.568-0.51,1.053-0.789,1.45c-0.279,0.398-0.575,0.7-0.821,0.936c-0.229,0.246-0.477,0.383-0.61,0.496
	c-0.148,0.102-0.227,0.156-0.227,0.156s0.024-0.094,0.067-0.27c0.043-0.171,0.123-0.412,0.182-0.725
	c0.031-0.152,0.066-0.32,0.104-0.503c0.019-0.188,0.045-0.385,0.076-0.588c0.042-0.415,0.064-0.871,0.059-1.356
	c-0.014-0.241-0.028-0.491-0.044-0.749c-0.044-0.26-0.055-0.519-0.109-0.786c-0.092-0.534-0.22-1.085-0.392-1.644
	c-0.177-0.559-0.375-1.13-0.63-1.696c-0.224-0.576-0.544-1.142-0.8-1.66c-0.169-0.312-0.357-0.598-0.531-0.947
	c-0.24-0.431-0.408-0.895-0.541-1.355c-0.237-0.931-0.247-1.845-0.133-2.663c0.248-1.638,0.924-2.904,1.593-3.867
	c0.68-0.963,1.38-1.63,1.917-2.05C50.158,20.367,50.514,20.185,50.514,20.185z"/>
<path fill="none" stroke="#726666" stroke-miterlimit="10" d="M60.706,25.612c0,0-0.08,0.39-0.229,1.021
	c-0.135,0.641-0.348,1.522-0.538,2.528c-0.187,1.002-0.353,2.146-0.301,3.198c0.031,0.523,0.109,1.015,0.262,1.444
	c0.082,0.211,0.154,0.422,0.275,0.61c0.16,0.281,0.336,0.613,0.507,0.934c0.385,0.764,0.683,1.498,0.905,2.262
	c0.229,0.761,0.373,1.542,0.438,2.305c0.059,0.764,0.045,1.513-0.062,2.213c-0.094,0.699-0.282,1.346-0.508,1.914
	c-0.232,0.568-0.51,1.052-0.788,1.45c-0.28,0.399-0.575,0.701-0.822,0.937c-0.228,0.246-0.477,0.383-0.609,0.495
	c-0.148,0.102-0.228,0.156-0.228,0.156s0.024-0.093,0.068-0.27c0.042-0.171,0.122-0.411,0.182-0.724
	c0.03-0.152,0.066-0.32,0.104-0.504c0.019-0.188,0.046-0.384,0.078-0.587c0.04-0.415,0.062-0.871,0.057-1.356
	c-0.013-0.241-0.028-0.491-0.043-0.75c-0.044-0.26-0.057-0.519-0.109-0.785c-0.091-0.534-0.221-1.085-0.392-1.646
	c-0.178-0.558-0.374-1.129-0.631-1.695c-0.224-0.576-0.544-1.142-0.801-1.66c-0.168-0.311-0.355-0.598-0.53-0.947
	c-0.24-0.431-0.407-0.895-0.541-1.355c-0.235-0.93-0.246-1.845-0.132-2.662c0.247-1.639,0.924-2.904,1.592-3.867
	c0.68-0.961,1.381-1.63,1.918-2.049C60.35,25.793,60.706,25.612,60.706,25.612z"/>
</svg>
